# xmcd
#
# Track frame offsets:
#	150
#	8070
#	20060
#	30628
#	39150
#	49615
#	58669
#	68481
#	76963
#	85473
#	95074
#	105161
#	113885
#	123723
#	135637
#	144324
#	155075
#
# Disc length: 2166 seconds
#
# Revision: 4
# Processed by: cddbd v1.5.1PL0 Copyright (c) Steve Scherf et al.
# Submitted via: audiograbber 1.83.01
#
DISCID=da087411
DTITLE=Neil O'Brien - Old Tyme Fiddling
DYEAR=1900
DGENRE=Fiddle
TTITLE0=Durang's Hornpipe
TTITLE1=Biddy The Bowl Wife
TTITLE2=Varsoviana Waltz
TTITLE3=Canadian Breakdown
TTITLE4=Wobbling Goose
TTITLE5=Jimmy's Favourite Jig
TTITLE6=Snow Deer
TTITLE7=Out The Buckhorn Way
TTITLE8=Swamp Lake Breakdown
TTITLE9=French Two Step
TTITLE10=Westphalia Waltz
TTITLE11=Pigeon On The Pier
TTITLE12=Johnny Hamlin's Breakdown
TTITLE13=Wayne's Old Time Waltz
TTITLE14=Prairie Reel
TTITLE15=Turkey In The Straw, Soldier's Joy
TTITLE16=Rubber Dolly
EXTD=I am very proud and happy to have had the opportunity to make this recordi
EXTD=g with my five sons playing with me. I am only sorry thatmy brother John w
EXTD=as unable to play piano on this record as he had wanted to for so many yea
EXTD=rs. I've decided to include a recording of Rubber Dolly taped many years a
EXTD=go in my living room. John is on the piano and vocals and I am playing fiddl
EXTD=e.\nI would like to thank all of my sons who worked so hard on his record,
EXTD=especially to Wayne and Gerald for doing this at their recording studio, In
EXTD=Line Music Productions in Toronto. I would also like to thank my daughter
EXTD=Maureen and my wife Nan who arranged the cover design and credits.\n\nI AM 
EXTD=DEDICTING THIS RECORDING TO MY LATE BROTHER JOHN.
EXTT0=
EXTT1=
EXTT2=
EXTT3=
EXTT4=
EXTT5=
EXTT6=
EXTT7=
EXTT8=
EXTT9=
EXTT10=
EXTT11=
EXTT12=
EXTT13=
EXTT14=
EXTT15=
EXTT16=
PLAYORDER=
